Format : MPEG-PS
 File size : 698 MiB
 Duration : 2h 7mn
 Overall bit rate mode : Variable
 Overall bit rate : 763 Kbps
 Writing library : encoded by TMPGEnc Video Mastering Works 5 Version. 5.0.5.32
 
Video
 ID : 224 (0xE0)
 Format : MPEG Video
 Format version : Version 1
 Format settings, BVOP : Yes
 Format settings, Matrix : Custom
 Duration : 2h 7mn
 Bit rate mode : Variable
 Bit rate : 684 Kbps
 Maximum bit rate : 688 Kbps
 Width : 352 pixels
 Height : 288 pixels
 Display aspect ratio : 4:3
 Frame rate : 25.000 fps
 Standard : PAL
 Color space : YUV
 Bit depth : 8 bits
 Scan type : Progressive
 Compression mode : Lossy
 Bits/(Pixel*Frame) : 0.270
 Stream size : 626 MiB (90%)
 Writing library : TMPGEnc Video Mastering Works 5 Version. 5.0.5.32
 
Audio
 ID : 192 (0xC0)
 Format : MPEG Audio
 Format version : Version 1
 Format profile : Layer 2
 Duration : 2h 7mn
 Bit rate mode : Constant
 Bit rate : 64.0 Kbps
 Channel(s) : 2 channels
 Sampling rate : 48.0 KHz
 Compression mode : Lossy
 Stream size : 58.5 MiB (8%)

 SAMPLE INCLUDED
 
 SCREENS: ( Some Screenshots are a little hazzy but actual print is not hazzy)

[IMG]http://i1128.photobucket.com/albums/m482/vikkymaxx/Ladies%20VS%20Ricky%20Bahl/IMGLvsRB1.png[/IMG]
[IMG]http://i1128.photobucket.com/albums/m482/vikkymaxx/Ladies%20VS%20Ricky%20Bahl/IMGLvsRB2.png[/IMG]
[IMG]http://i1128.photobucket.com/albums/m482/vikkymaxx/Ladies%20VS%20Ricky%20Bahl/IMGLvsRB3.png[/IMG]
[IMG]http://i1128.photobucket.com/albums/m482/vikkymaxx/Ladies%20VS%20Ricky%20Bahl/IMGLvsRB4.png[/IMG]
[IMG]http://i1128.photobucket.com/albums/m482/vikkymaxx/Ladies%20VS%20Ricky%20Bahl/IMGLvsRB6.png[/IMG]
[IMG]http://i1128.photobucket.com/albums/m482/vikkymaxx/Ladies%20VS%20Ricky%20Bahl/IMGLvsRB7.png[/IMG]
[IMG]http://i1128.photobucket.com/albums/m482/vikkymaxx/Ladies%20VS%20Ricky%20Bahl/IMGLvsRB8.png[/IMG]
[IMG]http://i1128.photobucket.com/albums/m482/vikkymaxx/Ladies%20VS%20Ricky%20Bahl/IMGLvsRB9.png[/IMG]
[IMG]http://i1128.photobucket.com/albums/m482/vikkymaxx/Ladies%20VS%20Ricky%20Bahl/IMGLvsRB10-1.png[/IMG]

                 
                  *****ALL CREDITS TO THE ORIGINAL RIPPER*****
 
